<svg width="17" height="18" fill="none" xmlns="http://www.w3.org/2000/svg"><path d="M13.167 8.167h1.25a1.25 1.25 0 0 0 0-2.5h-1.25v4.166m0 3.334V16.5H14a1.666 1.666 0 1 0 0-3.333h-.833ZM1.5 3.167a1.667 1.667 0 1 0 3.333 0 1.667 1.667 0 0 0-3.333 0Z" stroke="#101828" stroke-width="1.5" stroke-linecap="round" stroke-linejoin="round"/><path d="M3.167 4.833v2.5A.833.833 0 0 0 4 8.167h2.5m0 0V14a.833.833 0 0 0 .833.833h2.5M6.5 8.167h3.333" stroke="#101828" stroke-width="1.5" stroke-linecap="round" stroke-linejoin="round"/></svg>