<svg width="26" height="27" fill="none" xmlns="http://www.w3.org/2000/svg"><path d="M20.167 12.167h2a2 2 0 0 0 0-4h-2v6.666m0 5.334V25.5H21.5a2.667 2.667 0 0 0 0-5.333h-1.333ZM1.5 4.167a2.667 2.667 0 1 0 5.333 0 2.667 2.667 0 0 0-5.333 0Z" stroke="#101828" stroke-width="1.8" stroke-linecap="round" stroke-linejoin="round"/><path d="M4.167 6.833v4A1.333 1.333 0 0 0 5.5 12.167h4m0 0V21.5a1.333 1.333 0 0 0 1.333 1.333h4M9.5 12.167h5.333" stroke="#101828" stroke-width="1.8" stroke-linecap="round" stroke-linejoin="round"/></svg>