<svg width="15" height="16" fill="none" xmlns="http://www.w3.org/2000/svg"><path d="m13.475 4.025.008-.008-3.1-3.1L9.5 1.8l1.758 1.758a2.077 2.077 0 0 0-.731 3.415 2.083 2.083 0 0 0 2.306.435v6.009a.833.833 0 0 1-1.666 0v-3.75A1.667 1.667 0 0 0 9.5 8h-.833V2.167A1.667 1.667 0 0 0 7 .5H2A1.667 1.667 0 0 0 .333 2.167V15.5h8.334V9.25h1.25v4.167a2.083 2.083 0 0 0 4.166 0V5.5c0-.575-.233-1.1-.608-1.475ZM7 9.25v4.583H2V8h5v1.25Zm0-2.917H2V2.167h5v4.166Zm5 0a.833.833 0 1 1 0-1.666.833.833 0 0 1 0 1.666Z" fill="#101828"/></svg>